<?xml version="1.0" encoding="utf-8"?>
<!-- Generator: Adobe Illustrator 15.0.2, SVG Export Plug-In . SVG Version: 6.00 Build 0)  -->
<!DOCTYPE svg PUBLIC "-//W3C//DTD SVG 1.1//EN" "http://www.w3.org/Graphics/SVG/1.1/DTD/svg11.dtd">
<svg version="1.1" xmlns="http://www.w3.org/2000/svg" xmlns:xlink="http://www.w3.org/1999/xlink" x="0px" y="0px"
	 width="496.475px" height="613.469px" viewBox="0 0 496.475 613.469" enable-background="new 0 0 496.475 613.469"
	 xml:space="preserve">
<g id="Layer">
	<path fill="none" stroke="#BCBFCE" stroke-width="11" stroke-miterlimit="10" d="M350.397,12.393
		c-77.333-11.333-87.5,295.356-54,306.667C331.064,325.338,405.064,21.727,350.397,12.393z"/>
	<path fill="none" stroke="#BCBFCE" stroke-width="11" stroke-miterlimit="10" d="M484.397,72.393
		c15.667,26.5-270.333,205.667-288.667,150C164.73,157.06,477.064,45.727,484.397,72.393z"/>
	<path fill="none" stroke="#BCBFCE" stroke-width="11" stroke-miterlimit="10" d="M187.897,65.393
		c-18.5,33.5,210.667,221.75,223.5,173C444.897,166.893,218.347,28.623,187.897,65.393z"/>
	<circle fill="#BCBFCE" cx="442.647" cy="119.643" r="20.75"/>
	<circle fill="#BCBFCE" cx="257.397" cy="75.393" r="20.75"/>
	<circle fill="#BCBFCE" cx="278.147" cy="258.893" r="20.75"/>
	<circle fill="#BCBFCE" cx="333.397" cy="266.393" r="20.75"/>
</g>
<g id="Font">
	<polygon points="372.897,516.726 349.564,516.726 366.564,570.06 366.564,604.643 390.397,604.643 390.397,570.06 406.897,516.726 
		383.564,516.726 378.481,548.059 	"/>
	<path d="M319.397,563.726v40.917H295.73v-87.917h23.667c23.25,0,30,4.084,30,20.167v6.833c0,10.917-3.834,14.917-13.917,14.917
		c10.083,0,13.917,4.5,13.917,16.083v29.917H325.73V570.06C325.73,568.727,326.48,563.726,319.397,563.726 M319.397,563.726
		 M325.73,546.393V535.56c0-4.249-4.5-3.834-6.333-3.834v19.167C321.147,550.893,325.73,551.227,325.73,546.393z"/>
	<path d="M287.23,585.08c0,27.584-54.5,27.084-54.5,0.335v-49.543c0-26.749,54.5-27.249,54.5,0.335V585.08z M263.73,536.207
		c0-6.666-7.5-6.75-7.5-0.335v49.543c0,6.415,7.5,6.331,7.5-0.335V536.207z"/>
	<polygon points="207.272,587.393 207.272,565.643 221.147,565.643 221.147,550.643 207.272,550.643 207.272,535.643 
		222.897,535.643 222.897,516.643 207.272,516.643 197.397,516.643 182.397,516.643 182.397,604.643 189.647,604.643 
		207.272,604.643 224.897,604.643 224.897,587.393 	"/>
	<polygon points="147.147,516.643 147.147,547.143 140.397,547.143 140.397,516.643 116.147,516.643 116.147,604.643 
		140.397,604.643 140.397,566.893 147.147,566.893 147.147,604.643 171.397,604.643 171.397,516.643 	"/>
	<polygon points="109.407,516.643 56.407,516.643 56.407,535.643 71.178,535.643 71.178,604.643 94.637,604.643 94.637,535.643 
		109.407,535.643 	"/>
	<path fill="#C9232A" d="M442.948,494.377c-22.716,26.5-76.301,9.75-76.301-23.75V370.461c0-47.334,109.5-46.334,109.5,0v29.166
		h-46.79v-29.166c0-7.582-15.337-7.334-15.337,0v103.833c0,8.417,17.666,8.417,17.666,0v-34.167h-9.707v-23.75h24.755h29.413v23.75
		v64h-29.413l-3.786-11"/>
	<polygon fill="#C9232A" points="314.397,411.893 314.397,338.893 353.897,338.893 353.897,503.893 314.397,503.893 
		287.897,430.393 287.897,503.893 248.397,503.893 248.397,338.893 287.897,338.893 	"/>
	<path fill="#C9232A" d="M194.188,476.226H177.73l-2.333,27.667h-48.875l24.542-165h69.792l24.542,165h-48.875L194.188,476.226z
		 M185.881,382.061l-8.151,63.667h16.458L185.881,382.061z"/>
	<path fill="#C9232A" d="M91.787,503.893H15.855v-165h56.394c13.592,0,51.573,0,51.573,39v14
		c0.29,16.25-13.496,23.334-24.292,23.334c10.797,0,26.993,11.166,26.993,24.666v38.5
		C126.522,489.727,117.398,503.893,91.787,503.893z M79.286,465.56v-25.667c0-7.334-3.664-11-15.424-11v47.333
		C79.286,476.226,79.286,471.893,79.286,465.56z M79.286,392.56v-17.167c0-5-5.495-8.666-15.424-8.666v38.666
		C79.864,405.393,79.286,399.393,79.286,392.56z"/>
	<path d="M423.397,318.143c-19.5,26.5-65.5,9.75-65.5-23.75V194.227c0-47.334,94-46.334,94,0v29.167H411.73v-29.167
		c0-7.583-13.166-7.334-13.166,0V298.06c0,8.417,15.166,8.417,15.166,0v-34.167h-8.333v-23.75h21.25h25.25v23.75v64h-25.25l-3.25-11
		"/>
	<rect x="299.397" y="190.893" width="40.25" height="134.445"/>
	<ellipse transform="matrix(0.702 -0.7122 0.7122 0.702 -14.3982 273.7372)" cx="319.888" cy="154.073" rx="25.863" ry="21.464"/>
	<path d="M253.037,327.893h-65.64v-165h48.75c11.75,0,44.583,0,44.583,39v14c0.25,16.25-11.667,23.333-21,23.333
		c9.334,0,23.334,11.167,23.334,24.667v38.5C283.064,313.727,275.177,327.893,253.037,327.893z M242.23,289.56v-25.667
		c0-7.333-3.167-11-13.333-11v47.333C242.23,300.226,242.23,295.893,242.23,289.56z M242.23,216.56v-17.167
		c0-5-4.75-8.667-13.333-8.667v38.667C242.73,229.394,242.23,223.393,242.23,216.56z"/>
	<path d="M135.23,297.976v19.375c0,4.23,8.542,4.333,8.542,0V302.31h21.458v15.042c0,21.376-53.708,20.959-53.708,0v-42.458
		c0-22.833,53.708-21.25,53.708,0v23.083C165.23,297.976,135.23,297.976,135.23,297.976z M135.23,285.185h6.292v-10.291
		c0-3.5-6.292-3.625-6.292-0.001C135.23,274.893,135.23,285.185,135.23,285.185z"/>
	<path d="M81.522,274.893v57.5h23.708v-57.5c0-21.167-21.833-16.063-30-13.167V244.56H51.522v87.833H75.23v-55.5
		C75.23,273.185,81.522,270.726,81.522,274.893z"/>
	<path d="M45.147,319.893h4.25v12.5H27.939c-6.792,0-10.542-4.75-10.542-10.625v-47.625h-6.75v-12.25h6.75v-11h23.25v11h6.75v12.25
		h-6.75v41.167C40.647,317.227,42.813,319.893,45.147,319.893z"/>
</g>
</svg>
